<svg width="32" height="32" viewBox="0 0 32 32" fill="none" xmlns="http://www.w3.org/2000/svg">
<path d="M27.9062 14.5C27.9675 14.9914 28 15.492 28 16C28 22.6274 22.6274 28 16 28C9.37258 28 4 22.6274 4 16C4 15.492 4.03247 14.9914 4.09375 14.5H27.9062ZM20.5 18C18.567 18 17 19.1193 17 20.5C17 21.8807 18.567 23 20.5 23C22.433 23 24 21.8807 24 20.5C24 19.1193 22.433 18 20.5 18ZM27.124 11.5C27.3206 11.9855 27.4896 12.4854 27.6221 13H4.37793C4.51038 12.4854 4.6794 11.9855 4.87598 11.5H27.124ZM25.3643 8.5C25.7429 8.97211 26.0858 9.47334 26.3906 10H5.60938C5.91415 9.47334 6.25713 8.97211 6.63574 8.5H25.3643ZM21.8096 5.5C22.5724 5.92297 23.2832 6.42716 23.9326 7H8.06738C8.7168 6.42716 9.42761 5.92297 10.1904 5.5H21.8096Z" fill="#D9D9D9"/>
</svg>
